<?xml version="1.0" encoding="UTF-8"?>
<svg id="Layer_1" data-name="Layer 1" xmlns="http://www.w3.org/2000/svg" version="1.1" xmlns:xlink="http://www.w3.org/1999/xlink" viewBox="0 0 350 150">
  <defs>
    <style>
      .cls-1 {
        fill: url(#linear-gradient);
      }

      .cls-1, .cls-2, .cls-3, .cls-4 {
        stroke-width: 0px;
      }

      .cls-2 {
        fill: #c1f6ed;
      }

      .cls-5 {
        letter-spacing: 0em;
      }

      .cls-6 {
        letter-spacing: .5em;
      }

      .cls-3 {
        fill: #02353c;
      }

      .cls-7 {
        fill: #eafaf9;
        font-family: Alfarn, Alfarn;
        font-size: 48px;
      }

      .cls-4 {
        fill: #fff;
      }
    </style>
    <linearGradient id="linear-gradient" x1="25.7" y1="98.7" x2="100.5" y2="35.7" gradientUnits="userSpaceOnUse">
      <stop offset="0" stop-color="#5ebda5"/>
      <stop offset="1" stop-color="aqua"/>
    </linearGradient>
  </defs>
  <g>
    <path class="cls-1" d="M107,41c-.4-.6-.9-1-1.6-1.3l-40.9-19.1c-1-.5-2.2-.5-3.2,0l-40.9,19.1c-.5.2-.9.5-1.2.9-.9,1.1-1.2,2.6-.5,3.9.5,1,1.3,1.7,2.3,2,.2,10,.7,28.6,2.4,35.1,2.3,8.9,1.4,20.1,38.8,47.9.5.4,1.3.4,1.8,0,37.4-27.9,36.5-39,38.8-47.9,1.6-6.4,2.2-25.1,2.4-35.1.9-.3,1.7-1,2.2-1.9.6-1.2.4-2.5-.2-3.5Z"/>
    <path class="cls-3" d="M62.4,43.7c-1.9,1.5-8.7,6.3-23.9,9-.4,0-.7.4-.7.9,0,3.6.3,19.4,1.5,24.2,1.4,5.3.8,12,23.2,28.6s.8.2,1.1,0c22.3-16.7,21.8-23.3,23.2-28.6s1.4-20.5,1.5-24.2-.3-.8-.7-.9c-15.2-2.7-22-7.5-23.9-9s-.8-.3-1.1,0Z"/>
    <path class="cls-4" d="M62.5,50.2c-1.5,1.2-6.9,5-18.9,7.1s-.6.4-.6.7c0,2.9.2,15.4,1.2,19.1s.7,9.5,18.4,22.7c.3.2.6.2.8,0,17.7-13.2,17.3-18.5,18.4-22.7s1.1-16.3,1.2-19.1-.2-.6-.6-.7c-12-2.1-17.4-5.9-18.9-7.1s-.6-.2-.9,0Z"/>
    <path class="cls-2" d="M63,50.1c-.2,0-.4,0-.5.2-1.5,1.2-6.9,5-18.9,7.1-.3,0-.6.4-.6.7,0,2.9.2,15.4,1.2,19.1,1.1,4.2.7,9.5,18.4,22.7.1.1.3.1.5.1v-49.9Z"/>
    <path class="cls-3" d="M65.3,67.2h0c.3,1,1.2,1.6,2.3,1.6h0c2.3,0,3.3,2.9,1.4,4.3h0c-.8.6-1.2,1.7-.9,2.7h0c.7,2.2-1.8,4-3.7,2.7h0c-.8-.6-2-.6-2.8,0h0c-1.9,1.4-4.4-.5-3.7-2.7h0c.3-1,0-2.1-.9-2.7h0c-1.9-1.4-.9-4.3,1.4-4.3h0c1,0,1.9-.7,2.3-1.6h0c.7-2.2,3.8-2.2,4.5,0Z"/>
    <path class="cls-3" d="M105.4,39.7l-40.9-19.1c-1-.5-2.2-.5-3.2,0l-40.9,19.1c-.5.2-.9.5-1.2.9-.9,1.1-1.2,2.6-.5,3.9.9,1.8,3.1,2.6,4.9,1.8l37.8-17.6c1-.5,2.2-.5,3.2,0l37.8,17.6c1.8.9,4,0,4.9-1.8.6-1.2.4-2.5-.2-3.5s-.9-1-1.6-1.3Z"/>
  </g>
  <text class="cls-7" transform="translate(117.2 71.8)"><tspan x="0" y="0">Kare</tspan><tspan class="cls-6" x="0" y="40">	</tspan><tspan class="cls-5" x="36" y="40">Shield</tspan></text>
</svg>